<?xml version="1.0" encoding="UTF-8"?><svg id="Layer_1" xmlns="http://www.w3.org/2000/svg" viewBox="0 0 1497.09 354.68"><defs><style>.cls-1{stroke-width:0px;}</style></defs><path class="cls-1" d="m225.53,26.51v78.22c.07,3.61-1.7,5.38-5.32,5.31h-14.47c-3.62.07-5.39-1.7-5.32-5.31V26.51h-17.31c-3.64,0-5.39-1.7-5.32-5.31V6.76c-.07-3.61,1.7-5.31,5.32-5.31h60.37c3.61,0,5.39,1.7,5.32,5.31v14.44c.07,3.61-1.73,5.31-5.32,5.31h-17.95Z"/><path class="cls-1" d="m329.75,11.02c-1.41-5.8-6.62-9.89-12.61-9.89s-11.12,4.03-12.58,9.78l-10.56,41.82-11.56-47.07c-.64-3.04-2.56-4.6-5.75-4.53h-15.82c-2.91,0-4.4,1.13-4.4,3.4,0,.49.07,1.2.28,1.98l23.77,93.02c1.58,6.18,7.15,10.51,13.54,10.51h.09c6.5,0,12.14-4.47,13.61-10.79l9.2-40.43,9.53,40.45c1.48,6.31,7.11,10.77,13.6,10.77s11.95-4.31,13.53-10.47l23.77-93.06c.21-.78.28-1.42.28-1.91,0-2.34-1.49-3.47-4.4-3.47h-15.68c-3.12-.07-5.03,1.42-5.75,4.46l-11.99,47.15-10.15-41.72"/><path class="cls-1" d="m470.15,16.28c-10.78-10.83-23.62-16.28-38.59-16.28s-28.8,5.45-39.51,16.28c-10.85,10.97-16.31,24.14-16.31,39.43s5.53,28.74,16.52,39.71c10.79,10.69,23.77,16.07,38.87,16.07s28.02-5.38,38.8-16.07c10.99-10.97,16.52-24.21,16.52-39.78s-5.46-28.46-16.31-39.36Zm-17.73,61.09c-5.89,5.88-12.98,8.78-21.28,8.78s-15.46-2.97-21.35-8.92c-5.96-5.95-8.94-13.17-8.94-21.59s3.05-15.72,9.08-21.74c5.96-5.88,12.98-8.85,21-8.85,8.44,0,15.53,2.91,21.35,8.78,6.03,6.09,9.08,13.38,9.08,21.87s-2.98,15.72-8.93,21.66Z"/><path class="cls-1" d="m645.74,94.26c0,8.72,7.08,15.78,15.81,15.78h41.36c3.62.07,5.39-1.7,5.32-5.31v-14.44c.07-3.61-1.7-5.38-5.32-5.31h-32.06v-17.13h32.06c3.62.07,5.39-1.7,5.32-5.31v-14.44c.07-3.61-1.7-5.38-5.32-5.31h-32.06v-16.42h32.06c3.62.07,5.39-1.7,5.32-5.31V6.62c.07-3.61-1.7-5.38-5.32-5.31h-41.36c-8.73,0-15.81,7.06-15.81,15.78v77.18"/><path class="cls-1" d="m778.93,102.67c2.83,4.57,7.82,7.35,13.2,7.35,8.56,0,15.51-6.93,15.51-15.48l-.54-87.91c.07-3.61-1.7-5.38-5.32-5.31h-14.47c-3.62-.07-5.39,1.7-5.32,5.31v56.34l-32.69-53.96c-2.9-4.78-8.09-7.7-13.68-7.7-8.83,0-15.98,7.14-15.98,15.95v87.47c-.07,3.61,1.7,5.38,5.32,5.31h14.47c3.62.07,5.39-1.7,5.32-5.31v-56.99l34.18,54.92"/><path class="cls-1" d="m615.17,1.3c-7.53,0-14.25,4.72-16.78,11.8l-20.17,56.37-20-56.33c-2.52-7.1-9.25-11.84-16.79-11.84-9.84,0-17.82,7.96-17.82,17.78v85.64c-.07,3.61,1.7,5.38,5.32,5.31h15.04c3.62.07,5.39-1.7,5.32-5.31v-54.3l17.81,55.29c.92,2.9,2.91,4.39,5.96,4.32h10.21c3.05.07,5.11-1.42,6.03-4.32l19.29-55.57v54.58c-.07,3.61,1.7,5.38,5.32,5.31h14.47c3.62.07,5.39-1.7,5.32-5.31V19.09c0-9.82-7.98-17.78-17.82-17.78h-.7Z"/><path class="cls-1" d="m940.77,104.91l-37.83-95.14c-2.06-5.16-7.08-8.54-12.65-8.5-5.48.04-10.39,3.38-12.42,8.46l-38.24,95.18c-.36.85-.5,1.56-.5,2.12,0,2.05,1.35,3.05,4.04,3.05h16.67c3.05.07,5.18-1.34,6.38-4.18l6.6-14.94h35.18l6.59,14.94c1.21,2.83,3.34,4.25,6.39,4.18h16.24c2.69,0,4.04-1.06,4.04-3.11,0-.64-.14-1.28-.5-2.05Zm-58.66-37.73l8.3-20.46,8.16,20.46h-16.46Z"/><path class="cls-1" d="m1261.71,104.91l-37.83-95.14c-2.06-5.16-7.08-8.54-12.65-8.5-5.48.04-10.39,3.38-12.42,8.46l-38.24,95.18c-.36.85-.5,1.56-.5,2.12,0,2.05,1.35,3.05,4.04,3.05h16.67c3.05.07,5.18-1.34,6.38-4.18l6.6-14.94h35.18l6.59,14.94c1.21,2.83,3.34,4.25,6.39,4.18h16.24c2.69,0,4.04-1.06,4.04-3.11,0-.64-.14-1.28-.5-2.05Zm-58.66-37.73l8.3-20.46,8.16,20.46h-16.46Z"/><path class="cls-1" d="m1124.24,17.41c-10.71-10.69-23.55-16.07-38.59-16.07h-31.28c-3.62-.07-5.39,1.7-5.32,5.31v98.12c-.07,3.61,1.7,5.38,5.32,5.31h31.28c15.04,0,27.88-5.38,38.59-16.07,10.57-10.69,15.89-23.5,15.89-38.44s-5.32-27.54-15.89-38.16Zm-17.52,59.39c-5.53,5.45-12.56,8.21-21.07,8.21h-11.49V26.4h12.2c8.37,0,15.18,2.69,20.5,8,5.46,5.45,8.15,12.46,8.15,21.1s-2.77,15.71-8.3,21.31Z"/><path class="cls-1" d="m1008.29,102.69c2.83,4.57,7.82,7.35,13.2,7.35,8.56,0,15.51-6.93,15.51-15.48V6.62c.07-3.61-1.7-5.38-5.32-5.31h-14.47c-3.62-.07-5.39,1.7-5.32,5.31v56.91l-32.69-53.96c-2.9-4.78-8.09-7.7-13.68-7.7-8.83,0-15.98,7.14-15.98,15.95v86.91c-.07,3.61,1.7,5.38,5.32,5.31h14.47c3.62.07,5.39-1.7,5.32-5.31v-56.42l33.63,54.38"/><path class="cls-1" d="m789.79,203.63c6.41.13,9.56-3.01,9.44-9.42v-25.63c.13-6.41-3.03-9.55-9.44-9.42h-107.12c-6.42-.13-9.57,3.01-9.45,9.42v25.63c-.12,6.4,3.03,9.55,9.45,9.42h30.71v138.81c-.12,6.4,3.03,9.55,9.45,9.42h25.68c6.42.13,9.56-3.01,9.44-9.42v-138.81h31.85Z"/><path class="cls-1" d="m955.03,343.33l-40.15-70.72c19.13-12.18,28.7-29.65,28.7-52.38,0-17.84-5.79-32.54-17.25-44.09-11.32-11.31-25.42-16.96-42.3-16.96h-36.39c-15.5,0-28.06,12.54-28.06,28.01v155.52c-.12,6.41,3.03,9.55,9.44,9.42h25.68c6.42.13,9.56-3.01,9.44-9.42v-64.19h6.67l36.13,66.45c2.52,4.9,6.54,7.29,12.09,7.16h30.96c4.29,0,6.42-1.63,6.42-4.9,0-1-.49-2.26-1.38-3.89Zm-60.67-111.8c-2.89,3.02-6.92,4.52-11.95,4.52h-18.26v-32.41h18.26c5.03,0,9.06,1.5,12.2,4.64,2.89,3.02,4.41,6.78,4.41,11.18,0,5.02-1.52,9.04-4.66,12.06Z"/><path class="cls-1" d="m1281.3,185.8c1.89-2.39,2.77-4.39,2.77-6.03,0-3.64-3.78-7.41-11.21-11.43-13.97-7.41-29.32-11.18-46.32-11.18-27.57,0-50.98,9.55-70.12,28.77-19.13,19.22-28.7,42.33-28.7,69.47s9.7,50.63,28.96,69.98c19.13,19.22,42.42,28.76,69.86,28.76,12.2,0,24.04-2,35.24-6.16,7.93-2.89,13.97-6.03,18.13-9.17,2.89-2.26,4.41-4.64,4.41-7.28,0-1.88-.88-3.89-2.78-6.15l-16.61-20.86c-2.27-2.89-4.66-4.27-7.05-4.27-1.38,0-2.9.5-4.53,1.39-8.68,5.15-18.01,7.78-27.95,7.78-15.23,0-27.82-5.15-38.02-15.33-10.07-10.17-15.1-22.99-15.1-38.44s5.03-28.01,15.23-38.19c10.45-10.55,23.29-15.83,38.52-15.83,10.2,0,19.38,2.64,27.44,7.79,1.38.88,2.89,1.39,4.4,1.39,2.65,0,5.04-1.39,7.17-4.27l16.24-20.73Z"/><path class="cls-1" d="m1386,345.09c2.9,4.78,7.05,7.16,12.72,7.03h35.24c4.03,0,6.04-1.51,6.04-4.64,0-1.14-.5-2.39-1.38-3.9l-55.77-87.68,54.5-88.18c.88-1.39,1.39-2.64,1.39-3.77,0-3.14-2.01-4.78-6.16-4.78h-33.62c-5.66-.13-9.82,2.26-12.58,7.03l-37.76,61.93v-59.55c.12-6.4-3.03-9.55-9.45-9.42h-25.67c-6.42-.13-9.56,3.01-9.44,9.42v174.11c-.12,6.41,3.02,9.55,9.44,9.42h25.67c6.42.13,9.56-3.01,9.45-9.42v-59.04l37.38,61.43Z"/><path class="cls-1" d="m1045.98,354.13c15.23,0,28.82-4.4,40.79-13.06,15.85-11.43,23.79-26.38,23.79-44.72v-127.76c.13-6.41-3.03-9.55-9.44-9.42h-25.68c-6.42-.13-9.56,3.01-9.44,9.42v123.61c0,4.52-2.02,8.54-6.05,12.18-3.9,3.52-8.44,5.28-13.72,5.28h-12.3c-4.91,0-9.56-1.51-13.84-4.65-5.17-3.64-7.68-8.16-7.68-13.56v-122.86c.13-6.41-3.02-9.55-9.44-9.42h-25.67c-6.43-.13-9.57,3.01-9.45,9.42v127.76c0,14.45,5.29,27.01,15.99,37.68,13.35,13.44,29.96,20.1,49.85,20.1h12.3Z"/><path class="cls-1" d="m390.12,339.45c5.03,8.13,13.92,13.08,23.49,13.08,15.24,0,27.6-12.33,27.6-27.55v-156.47c.13-6.43-3.03-9.57-9.46-9.45h-25.75c-6.43-.12-9.59,3.02-9.47,9.45v101.26l-58.15-96.01c-5.16-8.5-14.39-13.69-24.34-13.69-15.71,0-28.44,12.7-28.44,28.38v154.62c-.13,6.43,3.03,9.58,9.47,9.45h25.75c6.43.13,9.59-3.03,9.47-9.45v-100.38l59.84,96.76"/><path class="cls-1" d="m549.8,345.48c2.91,4.79,7.07,7.18,12.75,7.05h35.34c4.04,0,6.06-1.51,6.06-4.66,0-1.14-.5-2.4-1.38-3.91l-55.92-87.91,54.65-88.42c.89-1.39,1.39-2.65,1.39-3.78,0-3.15-2.02-4.79-6.18-4.79h-33.7c-5.68-.13-9.84,2.27-12.62,7.05l-37.86,62.1v-59.71c.12-6.42-3.03-9.57-9.47-9.44h-25.74c-6.44-.13-9.59,3.02-9.47,9.44v174.57c-.12,6.43,3.03,9.58,9.47,9.45h25.74c6.44.13,9.59-3.02,9.47-9.45v-59.19l37.48,61.59Z"/><path class="cls-1" d="m89.5,168.53c.12-6.42-3.03-9.57-9.47-9.45h-25.75c-6.44-.12-9.59,3.03-9.47,9.45v99.07h.03v7.35c0,26-5.27,36.83-29.77,36.83h-7.01c-4.46,0-8.08,3.61-8.08,8.06v26.28c0,4.45,3.61,8.06,8.07,8.06h7.01c48.68,0,74.42-24.45,74.42-69.32v-116.33Z"/><path class="cls-1" d="m273.51,212.52l-32.03-50.15c-2.73-4.28-8.98-4.28-11.71,0l-32.03,50.15c-2.95,4.62.37,10.66,5.86,10.66h10.82v69.41c0,4.53-2.02,8.56-6.06,12.22-3.91,3.53-8.46,5.29-13.75,5.29h-12.33c-4.92,0-9.59-1.51-13.88-4.66-5.18-3.65-7.7-8.19-7.7-13.6v-123.27c.13-6.43-3.03-9.57-9.47-9.45h-25.74c-6.44-.13-9.59,3.02-9.47,9.45v128.18c0,14.48,5.31,27.08,16.03,37.78,13.38,13.48,30.04,20.15,49.98,20.15h12.33c15.27,0,28.9-4.41,40.89-13.1,15.9-11.46,23.85-26.45,23.85-44.84v-73.57h8.57c5.48,0,8.8-6.04,5.86-10.66Z"/><path class="cls-1" d="m1475.14,309.03c3.69,0,7.29.95,10.8,2.84,3.51,1.89,6.25,4.6,8.21,8.12,1.96,3.52,2.94,7.19,2.94,11.02s-.96,7.42-2.9,10.91c-1.93,3.49-4.64,6.21-8.12,8.14-3.48,1.93-7.13,2.9-10.93,2.9s-7.45-.97-10.93-2.9c-3.48-1.93-6.2-4.64-8.14-8.14s-2.91-7.13-2.91-10.91.99-7.49,2.95-11.02c1.97-3.52,4.71-6.23,8.22-8.12,3.51-1.89,7.11-2.84,10.8-2.84Zm0,3.64c-3.09,0-6.09.79-9.01,2.37-2.92,1.58-5.21,3.84-6.85,6.78s-2.47,6-2.47,9.18.81,6.19,2.43,9.1c1.62,2.9,3.89,5.16,6.8,6.78,2.91,1.62,5.95,2.43,9.11,2.43s6.2-.81,9.11-2.43c2.91-1.62,5.17-3.88,6.78-6.78s2.42-5.93,2.42-9.1-.82-6.24-2.46-9.18c-1.64-2.94-3.92-5.2-6.85-6.78-2.93-1.58-5.93-2.37-8.99-2.37Zm-9.63,30.47v-23.63h8.12c2.78,0,4.78.22,6.02.65,1.24.44,2.23,1.2,2.97,2.28.74,1.09,1.11,2.24,1.11,3.46,0,1.73-.62,3.23-1.85,4.51-1.23,1.28-2.87,2-4.9,2.15.83.35,1.5.77,2.01,1.25.95.93,2.11,2.49,3.49,4.69l2.88,4.63h-4.66l-2.1-3.73c-1.65-2.93-2.98-4.76-3.99-5.5-.7-.54-1.72-.81-3.06-.81h-2.24v10.04h-3.81Zm3.81-13.3h4.63c2.21,0,3.72-.33,4.53-.99.8-.66,1.21-1.53,1.21-2.62,0-.7-.19-1.32-.58-1.88s-.93-.97-1.62-1.24c-.69-.27-1.96-.41-3.83-.41h-4.34v7.13Z"/></svg>