<svg xmlns="http://www.w3.org/2000/svg" viewBox="0 0 900 600"><defs><linearGradient id="sky" x1="0" x2="0" y1="0" y2="1"><stop stop-color="#dff7ff"/><stop offset="1" stop-color="#f6fff0"/></linearGradient></defs><rect width="900" height="600" fill="url(#sky)"/><rect y="380" width="900" height="220" fill="#77b255"/><circle cx="735" cy="95" r="55" fill="#ffd84d"/><path d="M135 465c145-52 330-52 610 0" stroke="#e7f6d5" stroke-width="16" fill="none"/><rect x="100" y="300" width="440" height="96" rx="18" fill="#0f3d4a"/><rect x="465" y="330" width="180" height="66" rx="14" fill="#0ea5b7"/><rect x="150" y="260" width="160" height="55" rx="12" fill="#f5f1e9"/><circle cx="190" cy="415" r="42" fill="#092544"/><circle cx="190" cy="415" r="16" fill="#dfe7ef"/><circle cx="560" cy="415" r="42" fill="#092544"/><circle cx="560" cy="415" r="16" fill="#dfe7ef"/><path d="M665 405c35-55 65-55 100 0M690 405c15-30 32-30 48 0" stroke="#38bdf8" stroke-width="10" fill="none"/><text x="135" y="356" font-family="Inter,Arial" font-size="34" font-weight="800" fill="#fff">IRRIGATION</text></svg>