<svg xmlns="http://www.w3.org/2000/svg" viewBox="0 0 900 600"><defs><linearGradient id="sky" x1="0" x2="0" y1="0" y2="1"><stop stop-color="#dff7ff"/><stop offset="1" stop-color="#f8fff0"/></linearGradient><linearGradient id="grass" x1="0" x2="1"><stop stop-color="#177245"/><stop offset="1" stop-color="#75c043"/></linearGradient></defs><rect width="900" height="600" fill="url(#sky)"/><rect y="360" width="900" height="240" fill="url(#grass)"/><circle cx="725" cy="95" r="55" fill="#ffd84d"/><rect x="90" y="290" width="430" height="95" rx="18" fill="#173b2f"/><rect x="460" y="320" width="180" height="65" rx="14" fill="#246b45"/><rect x="135" y="248" width="190" height="60" rx="12" fill="#f5f1e9"/><rect x="350" y="238" width="86" height="105" rx="14" fill="#ffc20a"/><circle cx="190" cy="402" r="45" fill="#092544"/><circle cx="190" cy="402" r="18" fill="#dfe7ef"/><circle cx="555" cy="402" r="45" fill="#092544"/><circle cx="555" cy="402" r="18" fill="#dfe7ef"/><path d="M105 460c115-48 205-48 327-5 92 32 201 32 347-10" stroke="#e7f6d5" stroke-width="16" fill="none" opacity=".8"/><text x="120" y="340" font-family="Inter,Arial" font-size="44" font-weight="800" fill="#fff">LAWN CARE</text></svg>