<svg xmlns="http://www.w3.org/2000/svg" viewBox="0 0 900 600"><rect width="900" height="600" fill="#e7f6d5"/><rect y="315" width="900" height="285" fill="#5f8f38"/><g stroke="#315b22" stroke-width="9" stroke-linecap="round" opacity=".8"><path d="M95 565c30-120 35-190 10-250"/><path d="M185 575c20-110 18-185-8-255"/><path d="M275 575c38-135 32-205 7-262"/><path d="M370 570c32-105 28-175-5-250"/><path d="M475 575c22-118 18-178-15-252"/><path d="M590 575c28-130 25-190-8-255"/><path d="M705 575c35-125 31-188-5-250"/><path d="M820 575c25-112 19-174-9-255"/></g><rect x="0" y="0" width="900" height="230" fill="#dff7ff"/><rect x="510" y="160" width="210" height="120" rx="8" fill="#f8f0dc"/><polygon points="490,162 620,70 745,162" fill="#914f2c"/><rect x="555" y="215" width="50" height="65" fill="#7a4b32"/><circle cx="150" cy="190" r="70" fill="#4c8e2f"/><circle cx="105" cy="210" r="50" fill="#3d7c28"/><text x="60" y="82" font-family="Inter,Arial" font-size="40" font-weight="900" fill="#173b2f">BEFORE</text></svg>